<?xml version="1.0" encoding="UTF-8" standalone="no"?>
<!-- Created with Inkscape (http://www.inkscape.org/) -->

<svg
   xmlns:dc="http://purl.org/dc/elements/1.1/"
   xmlns:cc="http://creativecommons.org/ns#"
   xmlns:rdf="http://www.w3.org/1999/02/22-rdf-syntax-ns#"
   xmlns:svg="http://www.w3.org/2000/svg"
   xmlns="http://www.w3.org/2000/svg"
   version="1.1"
   width="656.43115"
   height="311.83539"
   id="svg2">
  <defs
     id="defs4">
    <marker
       refX="0"
       refY="0"
       orient="auto"
       id="TriangleOutS"
       style="overflow:visible">
      <path
         d="M 5.77,0 -2.88,5 -2.88,-5 5.77,0 z"
         transform="scale(0.2,0.2)"
         id="path3918"
         style="fill-rule:evenodd;stroke:#000000;stroke-width:1pt;marker-start:none" />
    </marker>
    <marker
       refX="0"
       refY="0"
       orient="auto"
       id="Tail"
       style="overflow:visible">
      <g
         transform="scale(-1.2,-1.2)"
         id="g3805">
        <path
           d="M -3.8048674,-3.9585227 0.54352094,0"
           id="path3807"
           style="fill:none;stroke:#000000;stroke-width:0.80000001;stroke-linecap:round;marker-start:none;marker-end:none" />
        <path
           d="M -1.2866832,-3.9585227 3.0617053,0"
           id="path3809"
           style="fill:none;stroke:#000000;stroke-width:0.80000001;stroke-linecap:round;marker-start:none;marker-end:none" />
        <path
           d="M 1.3053582,-3.9585227 5.6537466,0"
           id="path3811"
           style="fill:none;stroke:#000000;stroke-width:0.80000001;stroke-linecap:round;marker-start:none;marker-end:none" />
        <path
           d="M -3.8048674,4.1775838 0.54352094,0.21974226"
           id="path3813"
           style="fill:none;stroke:#000000;stroke-width:0.80000001;stroke-linecap:round;marker-start:none;marker-end:none" />
        <path
           d="M -1.2866832,4.1775838 3.0617053,0.21974226"
           id="path3815"
           style="fill:none;stroke:#000000;stroke-width:0.80000001;stroke-linecap:round;marker-start:none;marker-end:none" />
        <path
           d="M 1.3053582,4.1775838 5.6537466,0.21974226"
           id="path3817"
           style="fill:none;stroke:#000000;stroke-width:0.80000001;stroke-linecap:round;marker-start:none;marker-end:none" />
      </g>
    </marker>
    <marker
       refX="0"
       refY="0"
       orient="auto"
       id="Arrow2Send"
       style="overflow:visible">
      <path
         d="M 8.7185878,4.0337352 -2.2072895,0.01601326 8.7185884,-4.0017078 C 6.97309,-1.6296469 6.9831476,1.6157441 8.7185878,4.0337352 z"
         transform="matrix(-0.3,0,0,-0.3,0.69,0)"
         id="path3802"
         style="font-size:12px;fill-rule:evenodd;stroke-width:0.625;stroke-linejoin:round" />
    </marker>
    <marker
       refX="0"
       refY="0"
       orient="auto"
       id="Arrow1Send"
       style="overflow:visible">
      <path
         d="M 0,0 5,-5 -12.5,0 5,5 0,0 z"
         transform="matrix(-0.2,0,0,-0.2,-1.2,0)"
         id="path3784"
         style="fill-rule:evenodd;stroke:#000000;stroke-width:1pt;marker-start:none" />
    </marker>
    <marker
       refX="0"
       refY="0"
       orient="auto"
       id="Arrow1Lend"
       style="overflow:visible">
      <path
         d="M 0,0 5,-5 -12.5,0 5,5 0,0 z"
         transform="matrix(-0.8,0,0,-0.8,-10,0)"
         id="path3772"
         style="fill-rule:evenodd;stroke:#000000;stroke-width:1pt;marker-start:none" />
    </marker>
    <marker
       refX="0"
       refY="0"
       orient="auto"
       id="TriangleOutSS"
       style="overflow:visible">
      <path
         d="M 5.77,0 -2.88,5 -2.88,-5 5.77,0 z"
         transform="scale(0.2,0.2)"
         id="path5546"
         style="fill:#7f7f7f;fill-rule:evenodd;stroke:#7f7f7f;stroke-width:1pt;marker-start:none" />
    </marker>
    <marker
       refX="0"
       refY="0"
       orient="auto"
       id="TriangleOutSM"
       style="overflow:visible">
      <path
         d="M 5.77,0 -2.88,5 -2.88,-5 5.77,0 z"
         transform="scale(0.2,0.2)"
         id="path5549"
         style="fill:#7f7f7f;fill-rule:evenodd;stroke:#7f7f7f;stroke-width:1pt;marker-start:none" />
    </marker>
    <marker
       refX="0"
       refY="0"
       orient="auto"
       id="TriangleOutSe"
       style="overflow:visible">
      <path
         d="M 5.77,0 -2.88,5 -2.88,-5 5.77,0 z"
         transform="scale(0.2,0.2)"
         id="path9314"
         style="fill:#7f7f7f;fill-rule:evenodd;stroke:#7f7f7f;stroke-width:1pt;marker-start:none" />
    </marker>
    <marker
       refX="0"
       refY="0"
       orient="auto"
       id="TriangleOutSF"
       style="overflow:visible">
      <path
         d="M 5.77,0 -2.88,5 -2.88,-5 5.77,0 z"
         transform="scale(0.2,0.2)"
         id="path9317"
         style="fill:#7f7f7f;fill-rule:evenodd;stroke:#7f7f7f;stroke-width:1pt;marker-start:none" />
    </marker>
    <marker
       refX="0"
       refY="0"
       orient="auto"
       id="TriangleOutS8"
       style="overflow:visible">
      <path
         d="M 5.77,0 -2.88,5 -2.88,-5 5.77,0 z"
         transform="scale(0.2,0.2)"
         id="path9320"
         style="fill:#7f7f7f;fill-rule:evenodd;stroke:#7f7f7f;stroke-width:1pt;marker-start:none" />
    </marker>
    <marker
       refX="0"
       refY="0"
       orient="auto"
       id="TriangleOutSL"
       style="overflow:visible">
      <path
         d="M 5.77,0 -2.88,5 -2.88,-5 5.77,0 z"
         transform="scale(0.2,0.2)"
         id="path9323"
         style="fill:#7f7f7f;fill-rule:evenodd;stroke:#7f7f7f;stroke-width:1pt;marker-start:none" />
    </marker>
    <marker
       refX="0"
       refY="0"
       orient="auto"
       id="TriangleOutS7"
       style="overflow:visible">
      <path
         d="M 5.77,0 -2.88,5 -2.88,-5 5.77,0 z"
         transform="scale(0.2,0.2)"
         id="path9326"
         style="fill:#7f7f7f;fill-rule:evenodd;stroke:#7f7f7f;stroke-width:1pt;marker-start:none" />
    </marker>
    <marker
       refX="0"
       refY="0"
       orient="auto"
       id="TriangleOutSP"
       style="overflow:visible">
      <path
         d="M 5.77,0 -2.88,5 -2.88,-5 5.77,0 z"
         transform="scale(0.2,0.2)"
         id="path9329"
         style="fill:#7f7f7f;fill-rule:evenodd;stroke:#7f7f7f;stroke-width:1pt;marker-start:none" />
    </marker>
    <marker
       refX="0"
       refY="0"
       orient="auto"
       id="TriangleOutSy"
       style="overflow:visible">
      <path
         d="M 5.77,0 -2.88,5 -2.88,-5 5.77,0 z"
         transform="scale(0.2,0.2)"
         id="path9332"
         style="fill:#7f7f7f;fill-rule:evenodd;stroke:#7f7f7f;stroke-width:1pt;marker-start:none" />
    </marker>
    <marker
       refX="0"
       refY="0"
       orient="auto"
       id="TriangleOutSn"
       style="overflow:visible">
      <path
         d="M 5.77,0 -2.88,5 -2.88,-5 5.77,0 z"
         transform="scale(0.2,0.2)"
         id="path9335"
         style="fill:#7f7f7f;fill-rule:evenodd;stroke:#7f7f7f;stroke-width:1pt;marker-start:none" />
    </marker>
    <marker
       refX="0"
       refY="0"
       orient="auto"
       id="TriangleOutS9"
       style="overflow:visible">
      <path
         d="M 5.77,0 -2.88,5 -2.88,-5 5.77,0 z"
         transform="scale(0.2,0.2)"
         id="path9338"
         style="fill:#7f7f7f;fill-rule:evenodd;stroke:#7f7f7f;stroke-width:1pt;marker-start:none" />
    </marker>
    <marker
       refX="0"
       refY="0"
       orient="auto"
       id="TriangleOutSZ"
       style="overflow:visible">
      <path
         d="M 5.77,0 -2.88,5 -2.88,-5 5.77,0 z"
         transform="scale(0.2,0.2)"
         id="path9341"
         style="fill:#7f7f7f;fill-rule:evenodd;stroke:#7f7f7f;stroke-width:1pt;marker-start:none" />
    </marker>
    <marker
       refX="0"
       refY="0"
       orient="auto"
       id="TriangleOutSG"
       style="overflow:visible">
      <path
         d="M 5.77,0 -2.88,5 -2.88,-5 5.77,0 z"
         transform="scale(0.2,0.2)"
         id="path9344"
         style="fill:#7f7f7f;fill-rule:evenodd;stroke:#7f7f7f;stroke-width:1pt;marker-start:none" />
    </marker>
    <marker
       refX="0"
       refY="0"
       orient="auto"
       id="TriangleOutSel"
       style="overflow:visible">
      <path
         d="M 5.77,0 -2.88,5 -2.88,-5 5.77,0 z"
         transform="scale(0.2,0.2)"
         id="path9347"
         style="fill:#7f7f7f;fill-rule:evenodd;stroke:#7f7f7f;stroke-width:1pt;marker-start:none" />
    </marker>
    <marker
       refX="0"
       refY="0"
       orient="auto"
       id="TriangleOutSMM"
       style="overflow:visible">
      <path
         d="M 5.77,0 -2.88,5 -2.88,-5 5.77,0 z"
         transform="scale(0.2,0.2)"
         id="path9350"
         style="fill:#7f7f7f;fill-rule:evenodd;stroke:#7f7f7f;stroke-width:1pt;marker-start:none" />
    </marker>
    <marker
       refX="0"
       refY="0"
       orient="auto"
       id="TriangleOutSs"
       style="overflow:visible">
      <path
         d="M 5.77,0 -2.88,5 -2.88,-5 5.77,0 z"
         transform="scale(0.2,0.2)"
         id="path9353"
         style="fill:#7f7f7f;fill-rule:evenodd;stroke:#7f7f7f;stroke-width:1pt;marker-start:none" />
    </marker>
    <marker
       refX="0"
       refY="0"
       orient="auto"
       id="TriangleOutSO"
       style="overflow:visible">
      <path
         d="M 5.77,0 -2.88,5 -2.88,-5 5.77,0 z"
         transform="scale(0.2,0.2)"
         id="path9356"
         style="fill:#7f7f7f;fill-rule:evenodd;stroke:#7f7f7f;stroke-width:1pt;marker-start:none" />
    </marker>
    <marker
       refX="0"
       refY="0"
       orient="auto"
       id="TriangleOutSW"
       style="overflow:visible">
      <path
         d="M 5.77,0 -2.88,5 -2.88,-5 5.77,0 z"
         transform="scale(0.2,0.2)"
         id="path9359"
         style="fill:#7f7f7f;fill-rule:evenodd;stroke:#7f7f7f;stroke-width:1pt;marker-start:none" />
    </marker>
    <marker
       refX="0"
       refY="0"
       orient="auto"
       id="TriangleOutSg"
       style="overflow:visible">
      <path
         d="M 5.77,0 -2.88,5 -2.88,-5 5.77,0 z"
         transform="scale(0.2,0.2)"
         id="path9362"
         style="fill:#7f7f7f;fill-rule:evenodd;stroke:#7f7f7f;stroke-width:1pt;marker-start:none" />
    </marker>
    <marker
       refX="0"
       refY="0"
       orient="auto"
       id="TriangleOutSnR"
       style="overflow:visible">
      <path
         d="M 5.77,0 -2.88,5 -2.88,-5 5.77,0 z"
         transform="scale(0.2,0.2)"
         id="path9365"
         style="fill:#7f7f7f;fill-rule:evenodd;stroke:#7f7f7f;stroke-width:1pt;marker-start:none" />
    </marker>
    <marker
       refX="0"
       refY="0"
       orient="auto"
       id="TriangleOutSH"
       style="overflow:visible">
      <path
         d="M 5.77,0 -2.88,5 -2.88,-5 5.77,0 z"
         transform="scale(0.2,0.2)"
         id="path9368"
         style="fill:#7f7f7f;fill-rule:evenodd;stroke:#7f7f7f;stroke-width:1pt;marker-start:none" />
    </marker>
  </defs>
  <metadata
     id="metadata7">
    <rdf:RDF>
      <cc:Work
         rdf:about="">
        <dc:format>image/svg+xml</dc:format>
        <dc:type
           rdf:resource="http://purl.org/dc/dcmitype/StillImage" />
        <dc:title></dc:title>
      </cc:Work>
    </rdf:RDF>
  </metadata>
  <g
     transform="translate(-59.017829,-409.59432)"
     id="layer1">
    <path
       d="M 585.21302,683.21517 C 580.90385,678.98933 565.53008,664.24944 565.53008,664.24944"
       id="path7067"
       style="font-size:60px;font-style:normal;font-variant:normal;font-weight:bold;font-stretch:normal;line-height:125%;letter-spacing:0px;word-spacing:0px;color:#000000;fill:#fe0000;fill-opacity:1;fill-rule:nonzero;stroke:#7f7f7f;stroke-width:5;stroke-miterlimit:4;stroke-opacity:1;stroke-dasharray:none;marker:none;marker-end:url(#TriangleOutSG);visibility:visible;font-family:Gill Sans MT;-inkscape-font-specification:Gill Sans MT Bold" />
    <path
       d="M 290.77834,564.15038 C 296.91328,577.75803 305.66389,596.61426 308.50546,602.64049 311.34703,608.66671 320.11842,626.39501 320.11842,626.39501"
       id="path5014"
       style="font-size:198.72402954px;font-style:normal;font-variant:normal;font-weight:bold;font-stretch:normal;line-height:125%;letter-spacing:0px;word-spacing:0px;color:#000000;fill:none;stroke:#7f7f7f;stroke-width:5;stroke-miterlimit:4;stroke-opacity:1;marker:none;marker-end:url(#TriangleOutSL);visibility:visible;font-family:Gill Sans MT;-inkscape-font-specification:Gill Sans MT Bold" />
    <path
       d="M 189.9372,466.85597 156.58575,466.85597"
       id="path5022"
       style="color:#000000;fill:none;stroke:#7f7f7f;stroke-width:5;stroke-linecap:butt;stroke-linejoin:miter;stroke-miterlimit:4;stroke-opacity:1;stroke-dasharray:none;stroke-dashoffset:0;marker:none;marker-end:url(#TriangleOutSn);visibility:visible;display:inline;overflow:visible;enable-background:accumulate" />
    <path
       d="M 189.9372,602.64049 189.9372,626.06016"
       id="path5026"
       style="color:#000000;fill:none;stroke:#7f7f7f;stroke-width:5;stroke-linecap:butt;stroke-linejoin:miter;stroke-miterlimit:4;stroke-opacity:1;stroke-dasharray:none;stroke-dashoffset:0;marker:none;marker-end:url(#TriangleOutSel);visibility:visible;display:inline;overflow:visible;enable-background:accumulate" />
    <path
       d="M 223.64779,547.52966 C 223.64779,595.0233 261.12773,634.55712 313.94278,634.55712"
       id="path5030"
       style="color:#000000;fill:none;stroke:#7f7f7f;stroke-width:5;stroke-linecap:butt;stroke-linejoin:miter;stroke-miterlimit:4;stroke-opacity:1;stroke-dasharray:none;stroke-dashoffset:0;marker:none;marker-end:url(#TriangleOutS9);visibility:visible;display:inline;overflow:visible;enable-background:accumulate" />
    <path
       d="M 357.74822,466.85597 357.74822,424.7845"
       id="path5032"
       style="color:#000000;fill:none;stroke:#7f7f7f;stroke-width:5;stroke-linecap:butt;stroke-linejoin:miter;stroke-miterlimit:4;stroke-opacity:1;stroke-dasharray:none;stroke-dashoffset:0;marker:none;marker-end:url(#TriangleOutSy);visibility:visible;display:inline;overflow:visible;enable-background:accumulate" />
    <path
       d="M 391.4588,602.64049 464.05429,602.64049"
       id="path5034"
       style="color:#000000;fill:none;stroke:#7f7f7f;stroke-width:5;stroke-linecap:butt;stroke-linejoin:miter;stroke-miterlimit:4;stroke-opacity:1;stroke-dasharray:none;stroke-dashoffset:0;marker:none;marker-end:url(#TriangleOutSMM);visibility:visible;display:inline;overflow:visible;enable-background:accumulate" />
    <path
       d="M 559.45763,466.85597 630.04978,466.85597"
       id="path5036"
       style="color:#000000;fill:none;stroke:#7f7f7f;stroke-width:5;stroke-linecap:butt;stroke-linejoin:miter;stroke-miterlimit:4;stroke-opacity:1;stroke-dasharray:none;stroke-dashoffset:0;marker:none;marker-end:url(#TriangleOutSW);visibility:visible;display:inline;overflow:visible;enable-background:accumulate" />
    <path
       d="M 559.45763,602.64049 559.45763,648.44197"
       id="path5038"
       style="color:#000000;fill:none;stroke:#7f7f7f;stroke-width:5;stroke-linecap:butt;stroke-linejoin:miter;stroke-miterlimit:4;stroke-opacity:1;stroke-dasharray:none;stroke-dashoffset:0;marker:none;marker-end:url(#TriangleOutSF);visibility:visible;display:inline;overflow:visible;enable-background:accumulate" />
    <path
       d="M 357.74822,529.91399 C 357.74822,509.49666 357.21468,432.80907 309.47645,432.80907 L 166.03479,432.80907 C 156.66166,432.80907 147.02057,434.1317 147.02057,457.29079"
       id="path5057"
       style="color:#000000;fill:none;stroke:#7f7f7f;stroke-width:5;stroke-linecap:butt;stroke-linejoin:miter;stroke-miterlimit:4;stroke-opacity:1;stroke-dasharray:none;stroke-dashoffset:0;marker:none;marker-end:url(#TriangleOutSH);visibility:visible;display:inline;overflow:visible;enable-background:accumulate" />
    <path
       d="M 450.74293,478.81123 C 458.81527,486.78152 473.61947,500.92596 473.61947,593.07531"
       id="path5062"
       style="font-size:198.72402954px;font-style:normal;font-variant:normal;font-weight:bold;font-stretch:normal;line-height:125%;letter-spacing:0px;word-spacing:0px;color:#000000;fill:none;stroke:#7f7f7f;stroke-width:5;stroke-miterlimit:4;stroke-opacity:1;marker:none;marker-end:url(#TriangleOutSO);visibility:visible;font-family:Gill Sans MT;-inkscape-font-specification:Gill Sans MT Bold" />
    <path
       d="M 525.74705,602.64049 483.18465,602.64049"
       id="path5066"
       style="color:#000000;fill:none;stroke:#7f7f7f;stroke-width:5;stroke-linecap:butt;stroke-linejoin:miter;stroke-miterlimit:4;stroke-opacity:1;stroke-dasharray:none;stroke-dashoffset:0;marker:none;marker-end:url(#TriangleOutSe);visibility:visible;display:inline;overflow:visible;enable-background:accumulate" />
    <path
       d="M 189.9372,466.85597 250.38377,466.85597 C 263.49335,466.85611 274.14898,470.67919 282.3507,478.32524 290.55219,485.90674 294.653,495.10807 294.65312,505.92925 294.653,520.8977 286.90345,531.97818 271.40445,539.17071 278.24979,542.21627 284.70774,550.54282 290.77834,564.15038 296.91328,577.75803 302.82232,590.58804 308.50546,602.64049 L 271.40445,602.64049 C 269.20864,598.16942 265.36615,589.64847 259.87697,577.07762 254.4522,564.50682 249.77018,556.43945 245.8309,552.87551 241.95605,549.31167 237.79067,547.52972 233.33473,547.52966 L 223.64779,547.52966 223.64779,602.64049 189.9372,602.64049 189.9372,466.85597 M 223.64779,491.73846 223.64779,522.64717 241.47177,522.64717 C 247.1547,522.64725 251.64299,521.31889 254.93663,518.66209 258.29469,515.94065 259.97376,512.08516 259.97385,507.09561 259.97376,496.85762 253.54809,491.73857 240.69682,491.73846 L 223.64779,491.73846"
       id="path5008"
       style="font-size:198.72402954px;font-style:normal;font-variant:normal;font-weight:bold;font-stretch:normal;line-height:125%;letter-spacing:0px;word-spacing:0px;color:#000000;fill:#fe0000;fill-opacity:1;fill-rule:nonzero;stroke:#000000;stroke-width:5;stroke-miterlimit:4;stroke-opacity:1;marker:none;visibility:visible;font-family:Gill Sans MT;-inkscape-font-specification:Gill Sans MT Bold" />
    <path
       d="M 357.74822,466.85597 418.09791,466.85597 C 431.7887,466.85611 442.67037,470.84118 450.74293,478.81123 458.81527,486.78152 462.85149,496.20964 462.85161,507.09561 462.85149,518.37058 458.84756,528.02549 450.83979,536.06039 442.8964,544.09542 432.04703,548.1129 418.29165,548.11284 L 391.4588,548.11284 391.4588,602.64049 357.74822,602.64049 357.74822,466.85597 M 391.4588,491.73846 391.4588,523.23036 407.15165,523.23036 C 421.16537,523.23044 428.17225,517.98179 428.17234,507.48441 428.17225,501.58788 426.29944,497.50559 422.55391,495.23756 418.80821,492.90493 412.41483,491.73857 403.37375,491.73846 L 391.4588,491.73846"
       id="path5010"
       style="font-size:198.72402954px;font-style:normal;font-variant:normal;font-weight:bold;font-stretch:normal;line-height:125%;letter-spacing:0px;word-spacing:0px;color:#000000;fill:#fe0000;fill-opacity:1;fill-rule:nonzero;stroke:#000000;stroke-width:5;stroke-miterlimit:4;stroke-opacity:1;marker:none;visibility:visible;font-family:Gill Sans MT;-inkscape-font-specification:Gill Sans MT Bold" />
    <path
       d="M 559.45763,466.85597 559.45763,602.64049 525.74705,602.64049 525.74705,466.85597 559.45763,466.85597"
       id="path5012"
       style="font-size:198.72402954px;font-style:normal;font-variant:normal;font-weight:bold;font-stretch:normal;line-height:125%;letter-spacing:0px;word-spacing:0px;color:#000000;fill:#fe0000;fill-opacity:1;fill-rule:nonzero;stroke:#000000;stroke-width:5;stroke-miterlimit:4;stroke-opacity:1;marker:none;visibility:visible;font-family:Gill Sans MT;-inkscape-font-specification:Gill Sans MT Bold" />
    <path
       d="M 69.69013,677.32357 C 65.472257,667.60526 61.517829,656.26773 61.517829,633.67519 L 61.517829,447.03913 C 61.517829,425.94768 67.927602,415.21932 90.481606,415.21932 L 348.18304,415.21932"
       id="path5129"
       style="color:#000000;fill:none;stroke:#7f7f7f;stroke-width:5;stroke-linecap:butt;stroke-linejoin:miter;stroke-miterlimit:4;stroke-opacity:1;stroke-dasharray:none;stroke-dashoffset:0;marker:none;marker-end:url(#TriangleOutSg);visibility:visible;display:inline;overflow:visible;enable-background:accumulate" />
    <path
       d="M 685.51444,677.40458 690.93381,677.40458 C 699.92176,677.40458 712.94898,674.13092 712.94898,655.38941 712.94898,636.6479 712.94898,449.05943 712.94898,449.05943 712.94898,425.14556 702.01155,415.21932 681.34011,415.21932 L 367.3134,415.21932"
       id="path5133"
       style="color:#000000;fill:none;stroke:#7f7f7f;stroke-width:5;stroke-linecap:butt;stroke-linejoin:miter;stroke-miterlimit:4;stroke-opacity:1;stroke-dasharray:none;stroke-dashoffset:0;marker:none;marker-end:url(#TriangleOutSS);visibility:visible;display:inline;overflow:visible;enable-background:accumulate" />
    <path
       d="M 639.52552,677.40458 639.61496,476.42115"
       id="path6651"
       style="color:#000000;fill:none;stroke:#7f7f7f;stroke-width:5;stroke-linecap:butt;stroke-linejoin:miter;stroke-miterlimit:4;stroke-opacity:1;stroke-dasharray:none;stroke-dashoffset:0;marker:none;marker-end:url(#TriangleOutSP);visibility:visible;display:inline;overflow:visible;enable-background:accumulate" />
    <path
       d="M 488.81346,677.40458 C 488.81346,661.61578 497.94269,658.90776 509.88489,658.90776 L 550.53314,658.90776"
       id="path7471"
       style="color:#000000;fill:none;stroke:#7f7f7f;stroke-width:5;stroke-linecap:butt;stroke-linejoin:miter;stroke-miterlimit:4;stroke-opacity:1;stroke-dasharray:none;stroke-dashoffset:0;marker:none;marker-end:url(#TriangleOutSnR);visibility:visible;display:inline;overflow:visible;enable-background:accumulate" />
    <path
       d="M 128.77746,677.40458 C 144.90736,635.05121 147.02057,476.42115 147.02057,476.42115"
       id="path7873"
       style="color:#000000;fill:none;stroke:#7f7f7f;stroke-width:5;stroke-linecap:butt;stroke-linejoin:miter;stroke-miterlimit:4;stroke-opacity:1;stroke-dasharray:none;stroke-dashoffset:0;marker:none;marker-end:url(#TriangleOutS7);visibility:visible;display:inline;overflow:visible;enable-background:accumulate" />
    <path
       d="M 447.48683,677.40458 C 447.48683,633.90118 473.61947,647.44675 473.61947,612.20567"
       id="path8302"
       style="color:#000000;fill:none;stroke:#7f7f7f;stroke-width:5;stroke-linecap:butt;stroke-linejoin:miter;stroke-miterlimit:4;stroke-opacity:1;stroke-dasharray:none;stroke-dashoffset:0;marker:none;marker-end:url(#TriangleOutS8);visibility:visible;display:inline;overflow:visible;enable-background:accumulate" />
    <path
       d="M 186.24868,677.40458 C 186.24868,661.53676 189.9372,662.8276 189.9372,645.19052"
       id="path8720"
       style="color:#000000;fill:none;stroke:#7f7f7f;stroke-width:5;stroke-opacity:1;marker:none;marker-end:url(#TriangleOutSZ);visibility:visible;display:inline;overflow:visible;enable-background:accumulate" />
    <path
       d="M 350.73628,677.40458 C 350.73628,663.36397 351.72401,634.55712 333.07314,634.55712"
       id="path8935"
       style="color:#000000;fill:none;stroke:#7f7f7f;stroke-width:5;stroke-linecap:butt;stroke-linejoin:miter;stroke-miterlimit:4;stroke-opacity:1;stroke-dasharray:none;stroke-dashoffset:0;marker:none;marker-end:url(#TriangleOutSs);visibility:visible;display:inline;overflow:visible;enable-background:accumulate" />
    <g
       id="g8288">
      <path
         d="M 104.58982,692.19516 91.954927,718.92972 87.567812,718.92972 69.609884,677.40458 80.402193,677.40458 90.024599,700.05999 100.52443,677.40458 108.71371,677.40458 119.21354,700.05999 128.77746,677.40458 139.56977,677.40458 121.67033,718.92972 117.28322,718.92972 104.58982,692.19516"
         id="path5101"
         style="font-size:60px;font-style:normal;font-variant:normal;font-weight:bold;font-stretch:normal;line-height:125%;letter-spacing:0px;word-spacing:0px;color:#000000;fill:#fe0000;fill-opacity:1;fill-rule:nonzero;stroke:#000000;stroke-width:5;stroke-miterlimit:4;stroke-opacity:1;stroke-dasharray:none;marker:none;visibility:visible;font-family:Gill Sans MT;-inkscape-font-specification:Gill Sans MT Bold" />
      <path
         d="M 163.28944,677.40458 181.42285,718.40149 170.48431,718.40149 167.12085,710.30188 148.8412,710.30188 145.79947,718.40149 135.00716,718.40149 151.47347,677.40458 163.28944,677.40458 M 164.10836,703.14137 157.5277,687.20627 151.53197,703.14137 164.10836,703.14137"
         id="path5103"
         style="font-size:60px;font-style:normal;font-variant:normal;font-weight:bold;font-stretch:normal;line-height:125%;letter-spacing:0px;word-spacing:0px;color:#000000;fill:#fe0000;fill-opacity:1;fill-rule:nonzero;stroke:#000000;stroke-width:5;stroke-miterlimit:4;stroke-opacity:1;stroke-dasharray:none;marker:none;visibility:visible;font-family:Gill Sans MT;-inkscape-font-specification:Gill Sans MT Bold" />
      <path
         d="M 227.57531,677.40458 227.57531,718.40149 219.00582,718.40149 196.42679,692.13647 196.42679,718.40149 186.24868,718.40149 186.24868,677.40458 195.57861,677.40458 217.3972,702.4664 217.3972,677.40458 227.57531,677.40458"
         id="path5105"
         style="font-size:60px;font-style:normal;font-variant:normal;font-weight:bold;font-stretch:normal;line-height:125%;letter-spacing:0px;word-spacing:0px;color:#000000;fill:#fe0000;fill-opacity:1;fill-rule:nonzero;stroke:#000000;stroke-width:5;stroke-miterlimit:4;stroke-opacity:1;stroke-dasharray:none;marker:none;visibility:visible;font-family:Gill Sans MT;-inkscape-font-specification:Gill Sans MT Bold" />
      <path
         d="M 278.11489,677.40458 278.11489,718.40149 269.54539,718.40149 246.96637,692.13647 246.96637,718.40149 236.78826,718.40149 236.78826,677.40458 246.11819,677.40458 267.93678,702.4664 267.93678,677.40458 278.11489,677.40458"
         id="path5107"
         style="font-size:60px;font-style:normal;font-variant:normal;font-weight:bold;font-stretch:normal;line-height:125%;letter-spacing:0px;word-spacing:0px;color:#000000;fill:#fe0000;fill-opacity:1;fill-rule:nonzero;stroke:#000000;stroke-width:5;stroke-miterlimit:4;stroke-opacity:1;stroke-dasharray:none;marker:none;visibility:visible;font-family:Gill Sans MT;-inkscape-font-specification:Gill Sans MT Bold" />
      <path
         d="M 311.1645,677.40458 329.29791,718.40149 318.35937,718.40149 314.99591,710.30188 296.71626,710.30188 293.67453,718.40149 282.88222,718.40149 299.34853,677.40458 311.1645,677.40458 M 311.98342,703.14137 305.40276,687.20627 299.40703,703.14137 311.98342,703.14137"
         id="path5109"
         style="font-size:60px;font-style:normal;font-variant:normal;font-weight:bold;font-stretch:normal;line-height:125%;letter-spacing:0px;word-spacing:0px;color:#000000;fill:#fe0000;fill-opacity:1;fill-rule:nonzero;stroke:#000000;stroke-width:5;stroke-miterlimit:4;stroke-opacity:1;stroke-dasharray:none;marker:none;visibility:visible;font-family:Gill Sans MT;-inkscape-font-specification:Gill Sans MT Bold" />
      <path
         d="M 391.44872,677.40458 391.44872,718.40149 381.27061,718.40149 381.27061,701.82078 360.9144,701.82078 360.9144,718.40149 350.73628,718.40149 350.73628,677.40458 360.9144,677.40458 360.9144,693.8679 381.27061,693.8679 381.27061,677.40458 391.44872,677.40458"
         id="path5111"
         style="font-size:60px;font-style:normal;font-variant:normal;font-weight:bold;font-stretch:normal;line-height:125%;letter-spacing:0px;word-spacing:0px;color:#000000;fill:#fe0000;fill-opacity:1;fill-rule:nonzero;stroke:#000000;stroke-width:5;stroke-miterlimit:4;stroke-opacity:1;stroke-dasharray:none;marker:none;visibility:visible;font-family:Gill Sans MT;-inkscape-font-specification:Gill Sans MT Bold" />
      <path
         d="M 424.52758,677.40458 442.66099,718.40149 431.72245,718.40149 428.359,710.30188 410.07934,710.30188 407.03761,718.40149 396.2453,718.40149 412.71161,677.40458 424.52758,677.40458 M 425.34651,703.14137 418.76583,687.20627 412.7701,703.14137 425.34651,703.14137"
         id="path5113"
         style="font-size:60px;font-style:normal;font-variant:normal;font-weight:bold;font-stretch:normal;line-height:125%;letter-spacing:0px;word-spacing:0px;color:#000000;fill:#fe0000;fill-opacity:1;fill-rule:nonzero;stroke:#000000;stroke-width:5;stroke-miterlimit:4;stroke-opacity:1;stroke-dasharray:none;marker:none;visibility:visible;font-family:Gill Sans MT;-inkscape-font-specification:Gill Sans MT Bold" />
      <path
         d="M 488.81346,677.40458 488.81346,718.40149 480.24396,718.40149 457.66493,692.13647 457.66493,718.40149 447.48683,718.40149 447.48683,677.40458 456.81676,677.40458 478.63535,702.4664 478.63535,677.40458 488.81346,677.40458"
         id="path5115"
         style="font-size:60px;font-style:normal;font-variant:normal;font-weight:bold;font-stretch:normal;line-height:125%;letter-spacing:0px;word-spacing:0px;color:#000000;fill:#fe0000;fill-opacity:1;fill-rule:nonzero;stroke:#000000;stroke-width:5;stroke-miterlimit:4;stroke-opacity:1;stroke-dasharray:none;marker:none;visibility:visible;font-family:Gill Sans MT;-inkscape-font-specification:Gill Sans MT Bold" />
      <path
         d="M 536.95475,680.25118 536.95475,689.20183 C 531.74866,686.67807 526.65961,685.41618 521.68758,685.41614 516.89098,685.41618 513.19605,686.62916 510.6028,689.0551 508.00951,691.4811 506.71287,694.57224 506.71289,698.32856 506.71287,701.92839 508.00951,704.84347 510.6028,707.07379 513.19605,709.30412 516.60825,710.41928 520.83941,710.41927 523.08168,710.41928 525.33373,709.93018 527.59557,708.95196 L 527.59557,704.16849 521.68758,704.16849 521.68758,696.65582 537.80292,696.65582 537.80292,713.4126 C 536.18452,715.03644 533.71799,716.36681 530.40332,717.40372 527.10807,718.42105 523.84211,718.92972 520.60542,718.92972 513.48853,718.92972 507.63905,716.96351 503.05696,713.0311 498.49435,709.07913 496.21306,704.0609 496.21306,697.97641 496.21306,691.75499 498.49435,686.68786 503.05696,682.77497 507.63905,678.84259 513.56652,676.87638 520.83941,676.87634 526.84484,676.87638 532.21662,678.00133 536.95475,680.25118"
         id="path5117"
         style="font-size:60px;font-style:normal;font-variant:normal;font-weight:bold;font-stretch:normal;line-height:125%;letter-spacing:0px;word-spacing:0px;color:#000000;fill:#fe0000;fill-opacity:1;fill-rule:nonzero;stroke:#000000;stroke-width:5;stroke-miterlimit:4;stroke-opacity:1;stroke-dasharray:none;marker:none;visibility:visible;font-family:Gill Sans MT;-inkscape-font-specification:Gill Sans MT Bold" />
      <path
         d="M 568.308,676.87634 C 575.26886,676.87638 580.90385,678.98933 585.21302,683.21517 589.5221,687.42152 591.67666,692.32236 591.67671,697.91771 591.67666,703.59136 589.49285,708.51176 585.12528,712.67894 580.75762,716.84614 575.15187,718.92972 568.308,718.92972 561.38608,718.92972 555.75109,716.85591 551.40298,712.70829 547.05486,708.56068 544.8808,703.63049 544.8808,697.91771 544.8808,692.30279 547.03536,687.39217 551.34449,683.18582 555.67309,678.97954 561.32759,676.87638 568.308,676.87634 M 568.308,710.41927 C 572.16863,710.41928 575.2786,709.27477 577.63793,706.98575 579.99719,704.67717 581.17683,701.6545 581.17687,697.91771 581.17683,694.1614 579.99719,691.13872 577.63793,688.84968 575.2786,686.56068 572.16863,685.41618 568.308,685.41614 564.42781,685.41618 561.29834,686.56068 558.91957,688.84968 556.56026,691.13872 555.38061,694.1614 555.38063,697.91771 555.38061,701.6545 556.56026,704.67717 558.91957,706.98575 561.29834,709.27477 564.42781,710.41928 568.308,710.41927"
         id="path5119"
         style="font-size:60px;font-style:normal;font-variant:normal;font-weight:bold;font-stretch:normal;line-height:125%;letter-spacing:0px;word-spacing:0px;color:#000000;fill:#fe0000;fill-opacity:1;fill-rule:nonzero;stroke:#000000;stroke-width:5;stroke-miterlimit:4;stroke-opacity:1;stroke-dasharray:none;marker:none;visibility:visible;font-family:Gill Sans MT;-inkscape-font-specification:Gill Sans MT Bold" />
      <path
         d="M 629.3474,677.40458 639.52552,677.40458 639.52552,700.67627 C 639.52547,706.66294 637.76087,711.20185 634.23173,714.293 630.7025,717.38415 625.6622,718.92972 619.11081,718.92972 612.63735,718.92972 607.6068,717.36458 604.01912,714.2343 600.45094,711.10403 598.66684,706.60425 598.66684,700.73496 L 598.66684,677.40458 608.8742,677.40458 608.8742,700.96974 C 608.87419,703.82613 609.80035,706.11515 611.6527,707.83679 613.52453,709.55845 615.97155,710.41928 618.99381,710.41927 622.13301,710.41928 624.63854,709.53889 626.51041,707.77809 628.4017,706.01732 629.34738,703.5131 629.3474,700.26542 L 629.3474,677.40458"
         id="path5121"
         style="font-size:60px;font-style:normal;font-variant:normal;font-weight:bold;font-stretch:normal;line-height:125%;letter-spacing:0px;word-spacing:0px;color:#000000;fill:#fe0000;fill-opacity:1;fill-rule:nonzero;stroke:#000000;stroke-width:5;stroke-miterlimit:4;stroke-opacity:1;stroke-dasharray:none;marker:none;visibility:visible;font-family:Gill Sans MT;-inkscape-font-specification:Gill Sans MT Bold" />
      <path
         d="M 685.29777,677.40458 685.29777,684.91726 670.49856,684.91726 670.49856,718.40149 660.32044,718.40149 660.32044,684.91726 645.52125,684.91726 645.52125,677.40458 685.29777,677.40458"
         id="path5123"
         style="font-size:60px;font-style:normal;font-variant:normal;font-weight:bold;font-stretch:normal;line-height:125%;letter-spacing:0px;word-spacing:0px;color:#000000;fill:#fe0000;fill-opacity:1;fill-rule:nonzero;stroke:#000000;stroke-width:5;stroke-miterlimit:4;stroke-opacity:1;stroke-dasharray:none;marker:none;visibility:visible;font-family:Gill Sans MT;-inkscape-font-specification:Gill Sans MT Bold" />
    </g>
  </g>
</svg>
