<?xml version="1.0" encoding="UTF-8" standalone="no"?>
<!-- Created with Inkscape (http://www.inkscape.org/) -->

<svg
   xmlns:dc="http://purl.org/dc/elements/1.1/"
   xmlns:cc="http://creativecommons.org/ns#"
   xmlns:rdf="http://www.w3.org/1999/02/22-rdf-syntax-ns#"
   xmlns:svg="http://www.w3.org/2000/svg"
   xmlns="http://www.w3.org/2000/svg"
   xmlns:sodipodi="http://sodipodi.sourceforge.net/DTD/sodipodi-0.dtd"
   xmlns:inkscape="http://www.inkscape.org/namespaces/inkscape"
   version="1.1"
   width="656.43115"
   height="311.83539"
   id="svg2"
   inkscape:version="0.48.2 r9819"
   sodipodi:docname="logo.svg">
  <sodipodi:namedview
     pagecolor="#ffffff"
     bordercolor="#666666"
     borderopacity="1"
     objecttolerance="10"
     gridtolerance="10"
     guidetolerance="10"
     inkscape:pageopacity="0"
     inkscape:pageshadow="2"
     inkscape:window-width="1440"
     inkscape:window-height="852"
     id="namedview100"
     showgrid="false"
     inkscape:object-nodes="true"
     inkscape:object-paths="true"
     inkscape:zoom="1.5166958"
     inkscape:cx="327.17611"
     inkscape:cy="150.6737"
     inkscape:window-x="0"
     inkscape:window-y="0"
     inkscape:window-maximized="1"
     inkscape:current-layer="svg2" />
  <defs
     id="defs4">
    <marker
       style="overflow:visible"
       id="TriangleOutS"
       orient="auto"
       refY="0"
       refX="0">
      <path
         style="fill-rule:evenodd;stroke:#000000;stroke-width:1pt;marker-start:none"
         id="path3918"
         transform="scale(0.2,0.2)"
         d="M 5.77,0 -2.88,5 -2.88,-5 5.77,0 z" />
    </marker>
    <marker
       style="overflow:visible"
       id="Tail"
       orient="auto"
       refY="0"
       refX="0">
      <g
         id="g3805"
         transform="scale(-1.2,-1.2)">
        <path
           style="fill:none;stroke:#000000;stroke-width:0.80000001;stroke-linecap:round;marker-start:none;marker-end:none"
           id="path3807"
           d="M -3.8048674,-3.9585227 0.54352094,0" />
        <path
           style="fill:none;stroke:#000000;stroke-width:0.80000001;stroke-linecap:round;marker-start:none;marker-end:none"
           id="path3809"
           d="M -1.2866832,-3.9585227 3.0617053,0" />
        <path
           style="fill:none;stroke:#000000;stroke-width:0.80000001;stroke-linecap:round;marker-start:none;marker-end:none"
           id="path3811"
           d="M 1.3053582,-3.9585227 5.6537466,0" />
        <path
           style="fill:none;stroke:#000000;stroke-width:0.80000001;stroke-linecap:round;marker-start:none;marker-end:none"
           id="path3813"
           d="M -3.8048674,4.1775838 0.54352094,0.21974226" />
        <path
           style="fill:none;stroke:#000000;stroke-width:0.80000001;stroke-linecap:round;marker-start:none;marker-end:none"
           id="path3815"
           d="M -1.2866832,4.1775838 3.0617053,0.21974226" />
        <path
           style="fill:none;stroke:#000000;stroke-width:0.80000001;stroke-linecap:round;marker-start:none;marker-end:none"
           id="path3817"
           d="M 1.3053582,4.1775838 5.6537466,0.21974226" />
      </g>
    </marker>
    <marker
       style="overflow:visible"
       id="Arrow2Send"
       orient="auto"
       refY="0"
       refX="0">
      <path
         style="font-size:12px;fill-rule:evenodd;stroke-width:0.625;stroke-linejoin:round"
         id="path3802"
         transform="matrix(-0.3,0,0,-0.3,0.69,0)"
         d="M 8.7185878,4.0337352 -2.2072895,0.01601326 8.7185884,-4.0017078 C 6.97309,-1.6296469 6.9831476,1.6157441 8.7185878,4.0337352 z" />
    </marker>
    <marker
       style="overflow:visible"
       id="Arrow1Send"
       orient="auto"
       refY="0"
       refX="0">
      <path
         style="fill-rule:evenodd;stroke:#000000;stroke-width:1pt;marker-start:none"
         id="path3784"
         transform="matrix(-0.2,0,0,-0.2,-1.2,0)"
         d="M 0,0 5,-5 -12.5,0 5,5 0,0 z" />
    </marker>
    <marker
       style="overflow:visible"
       id="Arrow1Lend"
       orient="auto"
       refY="0"
       refX="0">
      <path
         style="fill-rule:evenodd;stroke:#000000;stroke-width:1pt;marker-start:none"
         id="path3772"
         transform="matrix(-0.8,0,0,-0.8,-10,0)"
         d="M 0,0 5,-5 -12.5,0 5,5 0,0 z" />
    </marker>
    <marker
       style="overflow:visible"
       id="TriangleOutSS"
       orient="auto"
       refY="0"
       refX="0">
      <path
         style="fill:#7f7f7f;fill-rule:evenodd;stroke:#7f7f7f;stroke-width:1pt;marker-start:none"
         id="path5546"
         transform="scale(0.2,0.2)"
         d="M 5.77,0 -2.88,5 -2.88,-5 5.77,0 z" />
    </marker>
    <marker
       style="overflow:visible"
       id="TriangleOutSM"
       orient="auto"
       refY="0"
       refX="0">
      <path
         style="fill:#7f7f7f;fill-rule:evenodd;stroke:#7f7f7f;stroke-width:1pt;marker-start:none"
         id="path5549"
         transform="scale(0.2,0.2)"
         d="M 5.77,0 -2.88,5 -2.88,-5 5.77,0 z" />
    </marker>
    <marker
       style="overflow:visible"
       id="TriangleOutSe"
       orient="auto"
       refY="0"
       refX="0">
      <path
         style="fill:#7f7f7f;fill-rule:evenodd;stroke:#7f7f7f;stroke-width:1pt;marker-start:none"
         id="path9314"
         transform="scale(0.2,0.2)"
         d="M 5.77,0 -2.88,5 -2.88,-5 5.77,0 z" />
    </marker>
    <marker
       style="overflow:visible"
       id="TriangleOutSF"
       orient="auto"
       refY="0"
       refX="0">
      <path
         style="fill:#7f7f7f;fill-rule:evenodd;stroke:#7f7f7f;stroke-width:1pt;marker-start:none"
         id="path9317"
         transform="scale(0.2,0.2)"
         d="M 5.77,0 -2.88,5 -2.88,-5 5.77,0 z" />
    </marker>
    <marker
       style="overflow:visible"
       id="TriangleOutS8"
       orient="auto"
       refY="0"
       refX="0">
      <path
         style="fill:#7f7f7f;fill-rule:evenodd;stroke:#7f7f7f;stroke-width:1pt;marker-start:none"
         id="path9320"
         transform="scale(0.2,0.2)"
         d="M 5.77,0 -2.88,5 -2.88,-5 5.77,0 z" />
    </marker>
    <marker
       style="overflow:visible"
       id="TriangleOutSL"
       orient="auto"
       refY="0"
       refX="0">
      <path
         style="fill:#7f7f7f;fill-rule:evenodd;stroke:#7f7f7f;stroke-width:1pt;marker-start:none"
         id="path9323"
         transform="scale(0.2,0.2)"
         d="M 5.77,0 -2.88,5 -2.88,-5 5.77,0 z" />
    </marker>
    <marker
       style="overflow:visible"
       id="TriangleOutS7"
       orient="auto"
       refY="0"
       refX="0">
      <path
         style="fill:#7f7f7f;fill-rule:evenodd;stroke:#7f7f7f;stroke-width:1pt;marker-start:none"
         id="path9326"
         transform="scale(0.2,0.2)"
         d="M 5.77,0 -2.88,5 -2.88,-5 5.77,0 z" />
    </marker>
    <marker
       style="overflow:visible"
       id="TriangleOutSP"
       orient="auto"
       refY="0"
       refX="0">
      <path
         style="fill:#7f7f7f;fill-rule:evenodd;stroke:#7f7f7f;stroke-width:1pt;marker-start:none"
         id="path9329"
         transform="scale(0.2,0.2)"
         d="M 5.77,0 -2.88,5 -2.88,-5 5.77,0 z" />
    </marker>
    <marker
       style="overflow:visible"
       id="TriangleOutSy"
       orient="auto"
       refY="0"
       refX="0">
      <path
         style="fill:#7f7f7f;fill-rule:evenodd;stroke:#7f7f7f;stroke-width:1pt;marker-start:none"
         id="path9332"
         transform="scale(0.2,0.2)"
         d="M 5.77,0 -2.88,5 -2.88,-5 5.77,0 z" />
    </marker>
    <marker
       style="overflow:visible"
       id="TriangleOutSn"
       orient="auto"
       refY="0"
       refX="0">
      <path
         style="fill:#7f7f7f;fill-rule:evenodd;stroke:#7f7f7f;stroke-width:1pt;marker-start:none"
         id="path9335"
         transform="scale(0.2,0.2)"
         d="M 5.77,0 -2.88,5 -2.88,-5 5.77,0 z" />
    </marker>
    <marker
       style="overflow:visible"
       id="TriangleOutS9"
       orient="auto"
       refY="0"
       refX="0">
      <path
         style="fill:#7f7f7f;fill-rule:evenodd;stroke:#7f7f7f;stroke-width:1pt;marker-start:none"
         id="path9338"
         transform="scale(0.2,0.2)"
         d="M 5.77,0 -2.88,5 -2.88,-5 5.77,0 z" />
    </marker>
    <marker
       style="overflow:visible"
       id="TriangleOutSZ"
       orient="auto"
       refY="0"
       refX="0">
      <path
         style="fill:#7f7f7f;fill-rule:evenodd;stroke:#7f7f7f;stroke-width:1pt;marker-start:none"
         id="path9341"
         transform="scale(0.2,0.2)"
         d="M 5.77,0 -2.88,5 -2.88,-5 5.77,0 z" />
    </marker>
    <marker
       style="overflow:visible"
       id="TriangleOutSG"
       orient="auto"
       refY="0"
       refX="0">
      <path
         style="fill:#7f7f7f;fill-rule:evenodd;stroke:#7f7f7f;stroke-width:1pt;marker-start:none"
         id="path9344"
         transform="scale(0.2,0.2)"
         d="M 5.77,0 -2.88,5 -2.88,-5 5.77,0 z" />
    </marker>
    <marker
       style="overflow:visible"
       id="TriangleOutSel"
       orient="auto"
       refY="0"
       refX="0">
      <path
         style="fill:#7f7f7f;fill-rule:evenodd;stroke:#7f7f7f;stroke-width:1pt;marker-start:none"
         id="path9347"
         transform="scale(0.2,0.2)"
         d="M 5.77,0 -2.88,5 -2.88,-5 5.77,0 z" />
    </marker>
    <marker
       style="overflow:visible"
       id="TriangleOutSMM"
       orient="auto"
       refY="0"
       refX="0">
      <path
         style="fill:#7f7f7f;fill-rule:evenodd;stroke:#7f7f7f;stroke-width:1pt;marker-start:none"
         id="path9350"
         transform="scale(0.2,0.2)"
         d="M 5.77,0 -2.88,5 -2.88,-5 5.77,0 z" />
    </marker>
    <marker
       style="overflow:visible"
       id="TriangleOutSs"
       orient="auto"
       refY="0"
       refX="0">
      <path
         style="fill:#7f7f7f;fill-rule:evenodd;stroke:#7f7f7f;stroke-width:1pt;marker-start:none"
         id="path9353"
         transform="scale(0.2,0.2)"
         d="M 5.77,0 -2.88,5 -2.88,-5 5.77,0 z" />
    </marker>
    <marker
       style="overflow:visible"
       id="TriangleOutSO"
       orient="auto"
       refY="0"
       refX="0">
      <path
         style="fill:#7f7f7f;fill-rule:evenodd;stroke:#7f7f7f;stroke-width:1pt;marker-start:none"
         id="path9356"
         transform="scale(0.2,0.2)"
         d="M 5.77,0 -2.88,5 -2.88,-5 5.77,0 z" />
    </marker>
    <marker
       style="overflow:visible"
       id="TriangleOutSW"
       orient="auto"
       refY="0"
       refX="0">
      <path
         style="fill:#7f7f7f;fill-rule:evenodd;stroke:#7f7f7f;stroke-width:1pt;marker-start:none"
         id="path9359"
         transform="scale(0.2,0.2)"
         d="M 5.77,0 -2.88,5 -2.88,-5 5.77,0 z" />
    </marker>
    <marker
       style="overflow:visible"
       id="TriangleOutSg"
       orient="auto"
       refY="0"
       refX="0">
      <path
         style="fill:#7f7f7f;fill-rule:evenodd;stroke:#7f7f7f;stroke-width:1pt;marker-start:none"
         id="path9362"
         transform="scale(0.2,0.2)"
         d="M 5.77,0 -2.88,5 -2.88,-5 5.77,0 z" />
    </marker>
    <marker
       style="overflow:visible"
       id="TriangleOutSnR"
       orient="auto"
       refY="0"
       refX="0">
      <path
         style="fill:#7f7f7f;fill-rule:evenodd;stroke:#7f7f7f;stroke-width:1pt;marker-start:none"
         id="path9365"
         transform="scale(0.2,0.2)"
         d="M 5.77,0 -2.88,5 -2.88,-5 5.77,0 z" />
    </marker>
    <marker
       style="overflow:visible"
       id="TriangleOutSH"
       orient="auto"
       refY="0"
       refX="0">
      <path
         style="fill:#7f7f7f;fill-rule:evenodd;stroke:#7f7f7f;stroke-width:1pt;marker-start:none"
         id="path9368"
         transform="scale(0.2,0.2)"
         d="M 5.77,0 -2.88,5 -2.88,-5 5.77,0 z" />
    </marker>
    <marker
       inkscape:stockid="TriangleOutSz"
       style="overflow:visible"
       id="TriangleOutSz"
       orient="auto"
       refY="0"
       refX="0">
      <path
         style="marker-start:none;stroke:#7f7f7f;stroke-width:1pt;fill:#7f7f7f;fill-rule:evenodd"
         id="path5476"
         transform="scale(0.2,0.2)"
         d="M 5.77,0 -2.88,5 -2.88,-5 5.77,0 z" />
    </marker>
    <marker
       inkscape:stockid="TriangleOutSMB"
       style="overflow:visible"
       id="TriangleOutSMB"
       orient="auto"
       refY="0"
       refX="0">
      <path
         style="marker-start:none;stroke:#7f7f7f;stroke-width:1pt;fill:#7f7f7f;fill-rule:evenodd"
         id="path5479"
         transform="scale(0.2,0.2)"
         d="M 5.77,0 -2.88,5 -2.88,-5 5.77,0 z" />
    </marker>
  </defs>
  <metadata
     id="metadata7">
    <rdf:RDF>
      <cc:Work
         rdf:about="">
        <dc:format>image/svg+xml</dc:format>
        <dc:type
           rdf:resource="http://purl.org/dc/dcmitype/StillImage" />
        <dc:title />
      </cc:Work>
    </rdf:RDF>
  </metadata>
  <path
     inkscape:connector-curvature="0"
     id="path5136"
     d="M 352.74049,57.26165 418.67328,57.26165"
     style="color:#000000;fill:none;stroke:#7f7f7f;stroke-width:5;stroke-linecap:butt;stroke-linejoin:miter;stroke-miterlimit:4;stroke-opacity:1;stroke-dasharray:none;stroke-dashoffset:0;marker:none;marker-end:url(#TriangleOutSMB);visibility:visible;display:inline;overflow:visible;enable-background:accumulate"
     sodipodi:nodetypes="cc" />
  <path
     inkscape:connector-curvature="0"
     id="path5138"
     d="M 466.72922,57.26165 437.7938,57.26165"
     style="stroke-linejoin:miter;enable-background:accumulate;marker-end:url(#TriangleOutSz);stroke-opacity:1;color:#000000;stroke-dashoffset:0;visibility:visible;stroke:#7f7f7f;stroke-linecap:butt;stroke-miterlimit:4;marker:none;stroke-dasharray:none;overflow:visible;stroke-width:5;display:inline;fill:none" />
  <path
     d="M 526.19519,273.62085 C 521.88602,269.39501 506.51225,254.65512 506.51225,254.65512"
     id="path7067"
     style="font-size:60px;font-style:normal;font-variant:normal;font-weight:bold;font-stretch:normal;line-height:125%;letter-spacing:0px;word-spacing:0px;color:#000000;fill:#fe0000;fill-opacity:1;fill-rule:nonzero;stroke:#7f7f7f;stroke-width:5;stroke-miterlimit:4;stroke-opacity:1;stroke-dasharray:none;marker:none;marker-end:url(#TriangleOutSG);visibility:visible;font-family:Gill Sans MT;-inkscape-font-specification:Gill Sans MT Bold"
     inkscape:connector-curvature="0" />
  <path
     d="M 231.76051,154.55606 C 237.89545,168.16371 246.64606,187.01994 249.48763,193.04617 252.3292,199.07239 261.10059,216.80069 261.10059,216.80069"
     id="path5014"
     style="font-size:198.72402954px;font-style:normal;font-variant:normal;font-weight:bold;font-stretch:normal;line-height:125%;letter-spacing:0px;word-spacing:0px;color:#000000;fill:none;stroke:#7f7f7f;stroke-width:5;stroke-miterlimit:4;stroke-opacity:1;marker:none;marker-end:url(#TriangleOutSL);visibility:visible;font-family:Gill Sans MT;-inkscape-font-specification:Gill Sans MT Bold"
     inkscape:connector-curvature="0" />
  <path
     d="M 130.91937,57.26165 97.567921,57.26165"
     id="path5022"
     style="color:#000000;fill:none;stroke:#7f7f7f;stroke-width:5;stroke-linecap:butt;stroke-linejoin:miter;stroke-miterlimit:4;stroke-opacity:1;stroke-dasharray:none;stroke-dashoffset:0;marker:none;marker-end:url(#TriangleOutSn);visibility:visible;display:inline;overflow:visible;enable-background:accumulate"
     inkscape:connector-curvature="0" />
  <path
     d="M 130.91937,193.04617 130.91937,216.46584"
     id="path5026"
     style="color:#000000;fill:none;stroke:#7f7f7f;stroke-width:5;stroke-linecap:butt;stroke-linejoin:miter;stroke-miterlimit:4;stroke-opacity:1;stroke-dasharray:none;stroke-dashoffset:0;marker:none;marker-end:url(#TriangleOutSel);visibility:visible;display:inline;overflow:visible;enable-background:accumulate"
     inkscape:connector-curvature="0" />
  <path
     d="M 164.62996,137.93534 C 164.62996,185.42898 202.1099,224.9628 254.92495,224.9628"
     id="path5030"
     style="color:#000000;fill:none;stroke:#7f7f7f;stroke-width:5;stroke-linecap:butt;stroke-linejoin:miter;stroke-miterlimit:4;stroke-opacity:1;stroke-dasharray:none;stroke-dashoffset:0;marker:none;marker-end:url(#TriangleOutS9);visibility:visible;display:inline;overflow:visible;enable-background:accumulate"
     inkscape:connector-curvature="0" />
  <path
     d="M 298.73039,57.26165 298.73039,15.19018"
     id="path5032"
     style="color:#000000;fill:none;stroke:#7f7f7f;stroke-width:5;stroke-linecap:butt;stroke-linejoin:miter;stroke-miterlimit:4;stroke-opacity:1;stroke-dasharray:none;stroke-dashoffset:0;marker:none;marker-end:url(#TriangleOutSy);visibility:visible;display:inline;overflow:visible;enable-background:accumulate"
     inkscape:connector-curvature="0" />
  <path
     d="M 332.44097,193.04617 405.03646,193.04617"
     id="path5034"
     style="color:#000000;fill:none;stroke:#7f7f7f;stroke-width:5;stroke-linecap:butt;stroke-linejoin:miter;stroke-miterlimit:4;stroke-opacity:1;stroke-dasharray:none;stroke-dashoffset:0;marker:none;marker-end:url(#TriangleOutSMM);visibility:visible;display:inline;overflow:visible;enable-background:accumulate"
     inkscape:connector-curvature="0" />
  <path
     d="M 500.4398,57.26165 571.03195,57.26165"
     id="path5036"
     style="color:#000000;fill:none;stroke:#7f7f7f;stroke-width:5;stroke-linecap:butt;stroke-linejoin:miter;stroke-miterlimit:4;stroke-opacity:1;stroke-dasharray:none;stroke-dashoffset:0;marker:none;marker-end:url(#TriangleOutSW);visibility:visible;display:inline;overflow:visible;enable-background:accumulate"
     inkscape:connector-curvature="0" />
  <path
     d="M 500.4398,193.04617 500.4398,238.84765"
     id="path5038"
     style="color:#000000;fill:none;stroke:#7f7f7f;stroke-width:5;stroke-linecap:butt;stroke-linejoin:miter;stroke-miterlimit:4;stroke-opacity:1;stroke-dasharray:none;stroke-dashoffset:0;marker:none;marker-end:url(#TriangleOutSF);visibility:visible;display:inline;overflow:visible;enable-background:accumulate"
     inkscape:connector-curvature="0" />
  <path
     d="M 298.73039,120.31967 C 298.73039,99.90234 306.10879,23.21475 185.18515,23.21475 L 107.01696,23.21475 C 97.643831,23.21475 88.002741,24.53738 88.002741,47.69647"
     id="path5057"
     style="color:#000000;fill:none;stroke:#7f7f7f;stroke-width:5;stroke-linecap:butt;stroke-linejoin:miter;stroke-miterlimit:4;stroke-opacity:1;stroke-dasharray:none;stroke-dashoffset:0;marker:none;marker-end:url(#TriangleOutSH);visibility:visible;display:inline;overflow:visible;enable-background:accumulate"
     inkscape:connector-curvature="0"
     sodipodi:nodetypes="cssc" />
  <path
     d="M 391.7251,69.21691 C 399.79744,77.1872 414.60164,91.33164 414.60164,183.48099"
     id="path5062"
     style="font-size:198.72402954px;font-style:normal;font-variant:normal;font-weight:bold;font-stretch:normal;line-height:125%;letter-spacing:0px;word-spacing:0px;color:#000000;fill:none;stroke:#7f7f7f;stroke-width:5;stroke-miterlimit:4;stroke-opacity:1;marker:none;marker-end:url(#TriangleOutSO);visibility:visible;font-family:Gill Sans MT;-inkscape-font-specification:Gill Sans MT Bold"
     inkscape:connector-curvature="0" />
  <path
     d="M 466.72922,193.04617 424.16682,193.04617"
     id="path5066"
     style="color:#000000;fill:none;stroke:#7f7f7f;stroke-width:5;stroke-linecap:butt;stroke-linejoin:miter;stroke-miterlimit:4;stroke-opacity:1;stroke-dasharray:none;stroke-dashoffset:0;marker:none;marker-end:url(#TriangleOutSe);visibility:visible;display:inline;overflow:visible;enable-background:accumulate"
     inkscape:connector-curvature="0" />
  <path
     d="M 130.91937,57.26165 191.36594,57.26165 C 204.47552,57.26179 215.13115,61.08487 223.33287,68.73092 231.53436,76.31242 235.63517,85.51375 235.63529,96.33493 235.63517,111.30338 227.88562,122.38386 212.38662,129.57639 219.23196,132.62195 225.68991,140.9485 231.76051,154.55606 237.89545,168.16371 243.80449,180.99372 249.48763,193.04617 L 212.38662,193.04617 C 210.19081,188.5751 206.34832,180.05415 200.85914,167.4833 195.43437,154.9125 190.75235,146.84513 186.81307,143.28119 182.93822,139.71735 178.77284,137.9354 174.3169,137.93534 L 164.62996,137.93534 164.62996,193.04617 130.91937,193.04617 130.91937,57.26165 M 164.62996,82.14414 164.62996,113.05285 182.45394,113.05285 C 188.13687,113.05293 192.62516,111.72457 195.9188,109.06777 199.27686,106.34633 200.95593,102.49084 200.95602,97.50129 200.95593,87.2633 194.53026,82.14425 181.67899,82.14414 L 164.62996,82.14414"
     id="path5008"
     style="font-size:198.72402954px;font-style:normal;font-variant:normal;font-weight:bold;font-stretch:normal;line-height:125%;letter-spacing:0px;word-spacing:0px;color:#000000;fill:#fe0000;fill-opacity:1;fill-rule:nonzero;stroke:#000000;stroke-width:5;stroke-miterlimit:4;stroke-opacity:1;marker:none;visibility:visible;font-family:Gill Sans MT;-inkscape-font-specification:Gill Sans MT Bold"
     inkscape:connector-curvature="0" />
  <path
     d="M 298.73039,57.26165 359.08008,57.26165 C 372.77087,57.26179 383.65254,61.24686 391.7251,69.21691 399.79744,77.1872 403.83366,86.61532 403.83378,97.50129 403.83366,108.77626 399.82973,118.43117 391.82196,126.46607 383.87857,134.5011 373.0292,138.51858 359.27382,138.51852 L 332.44097,138.51852 332.44097,193.04617 298.73039,193.04617 298.73039,57.26165 M 332.44097,82.14414 332.44097,113.63604 348.13382,113.63604 C 362.14754,113.63612 369.15442,108.38747 369.15451,97.89009 369.15442,91.99356 367.28161,87.91127 363.53608,85.64324 359.79038,83.31061 353.397,82.14425 344.35592,82.14414 L 332.44097,82.14414"
     id="path5010"
     style="font-size:198.72402954px;font-style:normal;font-variant:normal;font-weight:bold;font-stretch:normal;line-height:125%;letter-spacing:0px;word-spacing:0px;color:#000000;fill:#fe0000;fill-opacity:1;fill-rule:nonzero;stroke:#000000;stroke-width:5;stroke-miterlimit:4;stroke-opacity:1;marker:none;visibility:visible;font-family:Gill Sans MT;-inkscape-font-specification:Gill Sans MT Bold"
     inkscape:connector-curvature="0" />
  <path
     d="M 500.4398,57.26165 500.4398,193.04617 466.72922,193.04617 466.72922,57.26165 500.4398,57.26165"
     id="path5012"
     style="font-size:198.72402954px;font-style:normal;font-variant:normal;font-weight:bold;font-stretch:normal;line-height:125%;letter-spacing:0px;word-spacing:0px;color:#000000;fill:#fe0000;fill-opacity:1;fill-rule:nonzero;stroke:#000000;stroke-width:5;stroke-miterlimit:4;stroke-opacity:1;marker:none;visibility:visible;font-family:Gill Sans MT;-inkscape-font-specification:Gill Sans MT Bold"
     inkscape:connector-curvature="0" />
  <path
     d="M 10.672301,267.72925 C 6.454428,258.01094 2.5,246.67341 2.5,224.08087 L 2.5,37.44481 C 2.5,16.35336 8.909773,5.625 31.463777,5.625 L 289.16521,5.625"
     id="path5129"
     style="color:#000000;fill:none;stroke:#7f7f7f;stroke-width:5;stroke-linecap:butt;stroke-linejoin:miter;stroke-miterlimit:4;stroke-opacity:1;stroke-dasharray:none;stroke-dashoffset:0;marker:none;marker-end:url(#TriangleOutSg);visibility:visible;display:inline;overflow:visible;enable-background:accumulate"
     inkscape:connector-curvature="0" />
  <path
     d="M 626.49661,267.81026 631.91598,267.81026 C 640.90393,267.81026 653.93115,264.5366 653.93115,245.79509 653.93115,227.05358 653.93115,39.46511 653.93115,39.46511 653.93115,15.55124 642.99372,5.625 622.32228,5.625 L 308.29557,5.625"
     id="path5133"
     style="color:#000000;fill:none;stroke:#7f7f7f;stroke-width:5;stroke-linecap:butt;stroke-linejoin:miter;stroke-miterlimit:4;stroke-opacity:1;stroke-dasharray:none;stroke-dashoffset:0;marker:none;marker-end:url(#TriangleOutSS);visibility:visible;display:inline;overflow:visible;enable-background:accumulate"
     inkscape:connector-curvature="0" />
  <path
     d="M 580.50769,267.81026 580.59713,66.82683"
     id="path6651"
     style="color:#000000;fill:none;stroke:#7f7f7f;stroke-width:5;stroke-linecap:butt;stroke-linejoin:miter;stroke-miterlimit:4;stroke-opacity:1;stroke-dasharray:none;stroke-dashoffset:0;marker:none;marker-end:url(#TriangleOutSP);visibility:visible;display:inline;overflow:visible;enable-background:accumulate"
     inkscape:connector-curvature="0" />
  <path
     d="M 429.79563,267.81026 C 429.79563,252.02146 438.92486,249.31344 450.86706,249.31344 L 491.51531,249.31344"
     id="path7471"
     style="color:#000000;fill:none;stroke:#7f7f7f;stroke-width:5;stroke-linecap:butt;stroke-linejoin:miter;stroke-miterlimit:4;stroke-opacity:1;stroke-dasharray:none;stroke-dashoffset:0;marker:none;marker-end:url(#TriangleOutSnR);visibility:visible;display:inline;overflow:visible;enable-background:accumulate"
     inkscape:connector-curvature="0" />
  <path
     d="M 69.759631,267.81026 C 85.889531,225.45689 88.002741,66.82683 88.002741,66.82683"
     id="path7873"
     style="color:#000000;fill:none;stroke:#7f7f7f;stroke-width:5;stroke-linecap:butt;stroke-linejoin:miter;stroke-miterlimit:4;stroke-opacity:1;stroke-dasharray:none;stroke-dashoffset:0;marker:none;marker-end:url(#TriangleOutS7);visibility:visible;display:inline;overflow:visible;enable-background:accumulate"
     inkscape:connector-curvature="0" />
  <path
     d="M 388.469,267.81026 C 388.469,224.30686 414.60164,237.85243 414.60164,202.61135"
     id="path8302"
     style="color:#000000;fill:none;stroke:#7f7f7f;stroke-width:5;stroke-linecap:butt;stroke-linejoin:miter;stroke-miterlimit:4;stroke-opacity:1;stroke-dasharray:none;stroke-dashoffset:0;marker:none;marker-end:url(#TriangleOutS8);visibility:visible;display:inline;overflow:visible;enable-background:accumulate"
     inkscape:connector-curvature="0" />
  <path
     d="M 127.23085,267.81026 C 127.23085,251.94244 130.91937,253.23328 130.91937,235.5962"
     id="path8720"
     style="color:#000000;fill:none;stroke:#7f7f7f;stroke-width:5;stroke-opacity:1;marker:none;marker-end:url(#TriangleOutSZ);visibility:visible;display:inline;overflow:visible;enable-background:accumulate"
     inkscape:connector-curvature="0" />
  <path
     d="M 291.71845,267.81026 C 291.71845,253.76965 292.70618,224.9628 274.05531,224.9628"
     id="path8935"
     style="color:#000000;fill:none;stroke:#7f7f7f;stroke-width:5;stroke-linecap:butt;stroke-linejoin:miter;stroke-miterlimit:4;stroke-opacity:1;stroke-dasharray:none;stroke-dashoffset:0;marker:none;marker-end:url(#TriangleOutSs);visibility:visible;display:inline;overflow:visible;enable-background:accumulate"
     inkscape:connector-curvature="0" />
  <g
     transform="translate(-59.017829,-409.59432)"
     id="g8288">
    <path
       d="M 104.58982,692.19516 91.954927,718.92972 87.567812,718.92972 69.609884,677.40458 80.402193,677.40458 90.024599,700.05999 100.52443,677.40458 108.71371,677.40458 119.21354,700.05999 128.77746,677.40458 139.56977,677.40458 121.67033,718.92972 117.28322,718.92972 104.58982,692.19516"
       id="path5101"
       style="font-size:60px;font-style:normal;font-variant:normal;font-weight:bold;font-stretch:normal;line-height:125%;letter-spacing:0px;word-spacing:0px;color:#000000;fill:#fe0000;fill-opacity:1;fill-rule:nonzero;stroke:#000000;stroke-width:5;stroke-miterlimit:4;stroke-opacity:1;stroke-dasharray:none;marker:none;visibility:visible;font-family:Gill Sans MT;-inkscape-font-specification:Gill Sans MT Bold"
       inkscape:connector-curvature="0" />
    <path
       d="M 163.28944,677.40458 181.42285,718.40149 170.48431,718.40149 167.12085,710.30188 148.8412,710.30188 145.79947,718.40149 135.00716,718.40149 151.47347,677.40458 163.28944,677.40458 M 164.10836,703.14137 157.5277,687.20627 151.53197,703.14137 164.10836,703.14137"
       id="path5103"
       style="font-size:60px;font-style:normal;font-variant:normal;font-weight:bold;font-stretch:normal;line-height:125%;letter-spacing:0px;word-spacing:0px;color:#000000;fill:#fe0000;fill-opacity:1;fill-rule:nonzero;stroke:#000000;stroke-width:5;stroke-miterlimit:4;stroke-opacity:1;stroke-dasharray:none;marker:none;visibility:visible;font-family:Gill Sans MT;-inkscape-font-specification:Gill Sans MT Bold"
       inkscape:connector-curvature="0" />
    <path
       d="M 227.57531,677.40458 227.57531,718.40149 219.00582,718.40149 196.42679,692.13647 196.42679,718.40149 186.24868,718.40149 186.24868,677.40458 195.57861,677.40458 217.3972,702.4664 217.3972,677.40458 227.57531,677.40458"
       id="path5105"
       style="font-size:60px;font-style:normal;font-variant:normal;font-weight:bold;font-stretch:normal;line-height:125%;letter-spacing:0px;word-spacing:0px;color:#000000;fill:#fe0000;fill-opacity:1;fill-rule:nonzero;stroke:#000000;stroke-width:5;stroke-miterlimit:4;stroke-opacity:1;stroke-dasharray:none;marker:none;visibility:visible;font-family:Gill Sans MT;-inkscape-font-specification:Gill Sans MT Bold"
       inkscape:connector-curvature="0" />
    <path
       d="M 278.11489,677.40458 278.11489,718.40149 269.54539,718.40149 246.96637,692.13647 246.96637,718.40149 236.78826,718.40149 236.78826,677.40458 246.11819,677.40458 267.93678,702.4664 267.93678,677.40458 278.11489,677.40458"
       id="path5107"
       style="font-size:60px;font-style:normal;font-variant:normal;font-weight:bold;font-stretch:normal;line-height:125%;letter-spacing:0px;word-spacing:0px;color:#000000;fill:#fe0000;fill-opacity:1;fill-rule:nonzero;stroke:#000000;stroke-width:5;stroke-miterlimit:4;stroke-opacity:1;stroke-dasharray:none;marker:none;visibility:visible;font-family:Gill Sans MT;-inkscape-font-specification:Gill Sans MT Bold"
       inkscape:connector-curvature="0" />
    <path
       d="M 311.1645,677.40458 329.29791,718.40149 318.35937,718.40149 314.99591,710.30188 296.71626,710.30188 293.67453,718.40149 282.88222,718.40149 299.34853,677.40458 311.1645,677.40458 M 311.98342,703.14137 305.40276,687.20627 299.40703,703.14137 311.98342,703.14137"
       id="path5109"
       style="font-size:60px;font-style:normal;font-variant:normal;font-weight:bold;font-stretch:normal;line-height:125%;letter-spacing:0px;word-spacing:0px;color:#000000;fill:#fe0000;fill-opacity:1;fill-rule:nonzero;stroke:#000000;stroke-width:5;stroke-miterlimit:4;stroke-opacity:1;stroke-dasharray:none;marker:none;visibility:visible;font-family:Gill Sans MT;-inkscape-font-specification:Gill Sans MT Bold"
       inkscape:connector-curvature="0" />
    <path
       d="M 391.44872,677.40458 391.44872,718.40149 381.27061,718.40149 381.27061,701.82078 360.9144,701.82078 360.9144,718.40149 350.73628,718.40149 350.73628,677.40458 360.9144,677.40458 360.9144,693.8679 381.27061,693.8679 381.27061,677.40458 391.44872,677.40458"
       id="path5111"
       style="font-size:60px;font-style:normal;font-variant:normal;font-weight:bold;font-stretch:normal;line-height:125%;letter-spacing:0px;word-spacing:0px;color:#000000;fill:#fe0000;fill-opacity:1;fill-rule:nonzero;stroke:#000000;stroke-width:5;stroke-miterlimit:4;stroke-opacity:1;stroke-dasharray:none;marker:none;visibility:visible;font-family:Gill Sans MT;-inkscape-font-specification:Gill Sans MT Bold"
       inkscape:connector-curvature="0" />
    <path
       d="M 424.52758,677.40458 442.66099,718.40149 431.72245,718.40149 428.359,710.30188 410.07934,710.30188 407.03761,718.40149 396.2453,718.40149 412.71161,677.40458 424.52758,677.40458 M 425.34651,703.14137 418.76583,687.20627 412.7701,703.14137 425.34651,703.14137"
       id="path5113"
       style="font-size:60px;font-style:normal;font-variant:normal;font-weight:bold;font-stretch:normal;line-height:125%;letter-spacing:0px;word-spacing:0px;color:#000000;fill:#fe0000;fill-opacity:1;fill-rule:nonzero;stroke:#000000;stroke-width:5;stroke-miterlimit:4;stroke-opacity:1;stroke-dasharray:none;marker:none;visibility:visible;font-family:Gill Sans MT;-inkscape-font-specification:Gill Sans MT Bold"
       inkscape:connector-curvature="0" />
    <path
       d="M 488.81346,677.40458 488.81346,718.40149 480.24396,718.40149 457.66493,692.13647 457.66493,718.40149 447.48683,718.40149 447.48683,677.40458 456.81676,677.40458 478.63535,702.4664 478.63535,677.40458 488.81346,677.40458"
       id="path5115"
       style="font-size:60px;font-style:normal;font-variant:normal;font-weight:bold;font-stretch:normal;line-height:125%;letter-spacing:0px;word-spacing:0px;color:#000000;fill:#fe0000;fill-opacity:1;fill-rule:nonzero;stroke:#000000;stroke-width:5;stroke-miterlimit:4;stroke-opacity:1;stroke-dasharray:none;marker:none;visibility:visible;font-family:Gill Sans MT;-inkscape-font-specification:Gill Sans MT Bold"
       inkscape:connector-curvature="0" />
    <path
       d="M 536.95475,680.25118 536.95475,689.20183 C 531.74866,686.67807 526.65961,685.41618 521.68758,685.41614 516.89098,685.41618 513.19605,686.62916 510.6028,689.0551 508.00951,691.4811 506.71287,694.57224 506.71289,698.32856 506.71287,701.92839 508.00951,704.84347 510.6028,707.07379 513.19605,709.30412 516.60825,710.41928 520.83941,710.41927 523.08168,710.41928 525.33373,709.93018 527.59557,708.95196 L 527.59557,704.16849 521.68758,704.16849 521.68758,696.65582 537.80292,696.65582 537.80292,713.4126 C 536.18452,715.03644 533.71799,716.36681 530.40332,717.40372 527.10807,718.42105 523.84211,718.92972 520.60542,718.92972 513.48853,718.92972 507.63905,716.96351 503.05696,713.0311 498.49435,709.07913 496.21306,704.0609 496.21306,697.97641 496.21306,691.75499 498.49435,686.68786 503.05696,682.77497 507.63905,678.84259 513.56652,676.87638 520.83941,676.87634 526.84484,676.87638 532.21662,678.00133 536.95475,680.25118"
       id="path5117"
       style="font-size:60px;font-style:normal;font-variant:normal;font-weight:bold;font-stretch:normal;line-height:125%;letter-spacing:0px;word-spacing:0px;color:#000000;fill:#fe0000;fill-opacity:1;fill-rule:nonzero;stroke:#000000;stroke-width:5;stroke-miterlimit:4;stroke-opacity:1;stroke-dasharray:none;marker:none;visibility:visible;font-family:Gill Sans MT;-inkscape-font-specification:Gill Sans MT Bold"
       inkscape:connector-curvature="0" />
    <path
       d="M 568.308,676.87634 C 575.26886,676.87638 580.90385,678.98933 585.21302,683.21517 589.5221,687.42152 591.67666,692.32236 591.67671,697.91771 591.67666,703.59136 589.49285,708.51176 585.12528,712.67894 580.75762,716.84614 575.15187,718.92972 568.308,718.92972 561.38608,718.92972 555.75109,716.85591 551.40298,712.70829 547.05486,708.56068 544.8808,703.63049 544.8808,697.91771 544.8808,692.30279 547.03536,687.39217 551.34449,683.18582 555.67309,678.97954 561.32759,676.87638 568.308,676.87634 M 568.308,710.41927 C 572.16863,710.41928 575.2786,709.27477 577.63793,706.98575 579.99719,704.67717 581.17683,701.6545 581.17687,697.91771 581.17683,694.1614 579.99719,691.13872 577.63793,688.84968 575.2786,686.56068 572.16863,685.41618 568.308,685.41614 564.42781,685.41618 561.29834,686.56068 558.91957,688.84968 556.56026,691.13872 555.38061,694.1614 555.38063,697.91771 555.38061,701.6545 556.56026,704.67717 558.91957,706.98575 561.29834,709.27477 564.42781,710.41928 568.308,710.41927"
       id="path5119"
       style="font-size:60px;font-style:normal;font-variant:normal;font-weight:bold;font-stretch:normal;line-height:125%;letter-spacing:0px;word-spacing:0px;color:#000000;fill:#fe0000;fill-opacity:1;fill-rule:nonzero;stroke:#000000;stroke-width:5;stroke-miterlimit:4;stroke-opacity:1;stroke-dasharray:none;marker:none;visibility:visible;font-family:Gill Sans MT;-inkscape-font-specification:Gill Sans MT Bold"
       inkscape:connector-curvature="0" />
    <path
       d="M 629.3474,677.40458 639.52552,677.40458 639.52552,700.67627 C 639.52547,706.66294 637.76087,711.20185 634.23173,714.293 630.7025,717.38415 625.6622,718.92972 619.11081,718.92972 612.63735,718.92972 607.6068,717.36458 604.01912,714.2343 600.45094,711.10403 598.66684,706.60425 598.66684,700.73496 L 598.66684,677.40458 608.8742,677.40458 608.8742,700.96974 C 608.87419,703.82613 609.80035,706.11515 611.6527,707.83679 613.52453,709.55845 615.97155,710.41928 618.99381,710.41927 622.13301,710.41928 624.63854,709.53889 626.51041,707.77809 628.4017,706.01732 629.34738,703.5131 629.3474,700.26542 L 629.3474,677.40458"
       id="path5121"
       style="font-size:60px;font-style:normal;font-variant:normal;font-weight:bold;font-stretch:normal;line-height:125%;letter-spacing:0px;word-spacing:0px;color:#000000;fill:#fe0000;fill-opacity:1;fill-rule:nonzero;stroke:#000000;stroke-width:5;stroke-miterlimit:4;stroke-opacity:1;stroke-dasharray:none;marker:none;visibility:visible;font-family:Gill Sans MT;-inkscape-font-specification:Gill Sans MT Bold"
       inkscape:connector-curvature="0" />
    <path
       d="M 685.29777,677.40458 685.29777,684.91726 670.49856,684.91726 670.49856,718.40149 660.32044,718.40149 660.32044,684.91726 645.52125,684.91726 645.52125,677.40458 685.29777,677.40458"
       id="path5123"
       style="font-size:60px;font-style:normal;font-variant:normal;font-weight:bold;font-stretch:normal;line-height:125%;letter-spacing:0px;word-spacing:0px;color:#000000;fill:#fe0000;fill-opacity:1;fill-rule:nonzero;stroke:#000000;stroke-width:5;stroke-miterlimit:4;stroke-opacity:1;stroke-dasharray:none;marker:none;visibility:visible;font-family:Gill Sans MT;-inkscape-font-specification:Gill Sans MT Bold"
       inkscape:connector-curvature="0" />
  </g>
</svg>
